<svg width="54" height="40" viewBox="0 0 54 40" fill="none" xmlns="http://www.w3.org/2000/svg">
<path fill-rule="evenodd" clip-rule="evenodd" d="M25.0503 23.7507C21.2754 20.3503 8.4316 9.44436 1.1119 3.24537C0.65618 2.86017 0.586702 2.1831 0.955656 1.71227C1.80846 0.623951 3.08021 0 4.44301 0H48.8868C50.2497 0 51.5214 0.62395 52.3743 1.71217C52.7432 2.1831 52.6737 2.86017 52.218 3.24537C44.8982 9.44436 32.0544 20.3513 28.2762 23.7551C27.7706 24.2119 27.228 24.443 26.6649 24.443C26.1006 24.443 25.5571 24.2097 25.0503 23.7507ZM51.5033 6.76519C51.831 6.48519 52.2943 6.42123 52.6882 6.60456C53.0809 6.78581 53.3326 7.17966 53.3326 7.61257V35.5549C53.3326 38.0061 51.3394 39.9993 48.8883 39.9993H4.44442C1.9932 39.9993 0 38.0061 0 35.5549V7.61257C0 7.17966 0.251768 6.78685 0.644471 6.60446C1.03509 6.42332 1.49946 6.48509 1.82935 6.76508C8.45572 12.3814 20.0897 22.2717 23.5641 25.402C25.3978 27.0557 27.9368 27.0557 29.7663 25.4042C33.0258 22.4671 43.3859 13.6466 51.5033 6.76519Z" fill="#0E73B9"/>
</svg>
