<svg width="25" height="29" viewBox="0 0 25 29" fill="none" xmlns="http://www.w3.org/2000/svg">
<path fill-rule="evenodd" clip-rule="evenodd" d="M16.7473 21.8511C10.7131 22.92 7.32032 19.1602 6.69556 15.6041C6.07664 12.0801 7.98364 7.38237 14.0178 6.31375C17.0827 5.77134 19.2655 6.93263 19.2655 6.93263C19.2916 6.94611 19.3202 6.95353 19.3495 6.95434C19.3788 6.95515 19.4078 6.94933 19.4345 6.93731C19.4612 6.9253 19.4849 6.9074 19.5037 6.88494C19.5226 6.86248 19.5362 6.83604 19.5435 6.80759L21.0639 1.67914C21.0809 1.61606 21.0762 1.54903 21.0504 1.48899C21.0247 1.42895 20.9794 1.37946 20.922 1.34858C20.922 1.34858 17.7657 -0.459747 12.0508 0.551397C4.581 1.87363 -1.14 9.22941 0.193894 16.821C1.52195 24.3816 9.42365 29.2594 16.8626 27.9428C22.5775 26.9312 24.9262 24.1474 24.9262 24.1474C24.9692 24.0985 24.9946 24.0366 24.9983 23.9715C25.002 23.9064 24.9838 23.8419 24.9466 23.7885L21.7716 19.4912C21.755 19.4671 21.7332 19.447 21.7078 19.4324C21.6824 19.4179 21.6541 19.4092 21.6249 19.4071C21.5958 19.405 21.5665 19.4095 21.5393 19.4202C21.5121 19.431 21.4877 19.4477 21.4678 19.4692C21.4678 19.4692 19.8122 21.3096 16.7473 21.8511Z" fill="white"/>
<path fill-rule="evenodd" clip-rule="evenodd" d="M16.7473 21.8511C10.7131 22.92 7.32032 19.1602 6.69556 15.6041C6.07664 12.0801 7.98364 7.38237 14.0178 6.31375C17.0827 5.77134 19.2655 6.93263 19.2655 6.93263C19.2916 6.94611 19.3202 6.95353 19.3495 6.95434C19.3788 6.95515 19.4078 6.94933 19.4345 6.93731C19.4612 6.9253 19.4849 6.9074 19.5037 6.88494C19.5226 6.86248 19.5362 6.83604 19.5435 6.80759L21.0639 1.67914C21.0809 1.61606 21.0762 1.54903 21.0504 1.48899C21.0247 1.42895 20.9794 1.37946 20.922 1.34858C20.922 1.34858 17.7657 -0.459747 12.0508 0.551397C4.581 1.87363 -1.14 9.22941 0.193894 16.821C1.52195 24.3816 9.42365 29.2594 16.8626 27.9428C22.5775 26.9312 24.9262 24.1474 24.9262 24.1474C24.9692 24.0985 24.9946 24.0366 24.9983 23.9715C25.002 23.9064 24.9838 23.8419 24.9466 23.7885L21.7716 19.4912C21.755 19.4671 21.7332 19.447 21.7078 19.4324C21.6824 19.4179 21.6541 19.4092 21.6249 19.4071C21.5958 19.405 21.5665 19.4095 21.5393 19.4202C21.5121 19.431 21.4877 19.4477 21.4678 19.4692C21.4678 19.4692 19.8122 21.3096 16.7473 21.8511Z" fill="white"/>
<path fill-rule="evenodd" clip-rule="evenodd" d="M16.7473 21.8511C10.7131 22.92 7.32032 19.1602 6.69556 15.6041C6.07664 12.0801 7.98364 7.38237 14.0178 6.31375C17.0827 5.77134 19.2655 6.93263 19.2655 6.93263C19.2916 6.94611 19.3202 6.95353 19.3495 6.95434C19.3788 6.95515 19.4078 6.94933 19.4345 6.93731C19.4612 6.9253 19.4849 6.9074 19.5037 6.88494C19.5226 6.86248 19.5362 6.83604 19.5435 6.80759L21.0639 1.67914C21.0809 1.61606 21.0762 1.54903 21.0504 1.48899C21.0247 1.42895 20.9794 1.37946 20.922 1.34858C20.922 1.34858 17.7657 -0.459747 12.0508 0.551397C4.581 1.87363 -1.14 9.22941 0.193894 16.821C1.52195 24.3816 9.42365 29.2594 16.8626 27.9428C22.5775 26.9312 24.9262 24.1474 24.9262 24.1474C24.9692 24.0985 24.9946 24.0366 24.9983 23.9715C25.002 23.9064 24.9838 23.8419 24.9466 23.7885L21.7716 19.4912C21.755 19.4671 21.7332 19.447 21.7078 19.4324C21.6824 19.4179 21.6541 19.4092 21.6249 19.4071C21.5958 19.405 21.5665 19.4095 21.5393 19.4202C21.5121 19.431 21.4877 19.4477 21.4678 19.4692C21.4678 19.4692 19.8122 21.3096 16.7473 21.8511Z" fill="white"/>
<path fill-rule="evenodd" clip-rule="evenodd" d="M16.7473 21.8511C10.7131 22.92 7.32032 19.1602 6.69556 15.6041C6.07664 12.0801 7.98364 7.38237 14.0178 6.31375C17.0827 5.77134 19.2655 6.93263 19.2655 6.93263C19.2916 6.94611 19.3202 6.95353 19.3495 6.95434C19.3788 6.95515 19.4078 6.94933 19.4345 6.93731C19.4612 6.9253 19.4849 6.9074 19.5037 6.88494C19.5226 6.86248 19.5362 6.83604 19.5435 6.80759L21.0639 1.67914C21.0809 1.61606 21.0762 1.54903 21.0504 1.48899C21.0247 1.42895 20.9794 1.37946 20.922 1.34858C20.922 1.34858 17.7657 -0.459747 12.0508 0.551397C4.581 1.87363 -1.14 9.22941 0.193894 16.821C1.52195 24.3816 9.42365 29.2594 16.8626 27.9428C22.5775 26.9312 24.9262 24.1474 24.9262 24.1474C24.9692 24.0985 24.9946 24.0366 24.9983 23.9715C25.002 23.9064 24.9838 23.8419 24.9466 23.7885L21.7716 19.4912C21.755 19.4671 21.7332 19.447 21.7078 19.4324C21.6824 19.4179 21.6541 19.4092 21.6249 19.4071C21.5958 19.405 21.5665 19.4095 21.5393 19.4202C21.5121 19.431 21.4877 19.4477 21.4678 19.4692C21.4678 19.4692 19.8122 21.3096 16.7473 21.8511Z" fill="white"/>
<path fill-rule="evenodd" clip-rule="evenodd" d="M16.7473 21.8511C10.7131 22.92 7.32032 19.1602 6.69556 15.6041C6.07664 12.0801 7.98364 7.38237 14.0178 6.31375C17.0827 5.77134 19.2655 6.93263 19.2655 6.93263C19.2916 6.94611 19.3202 6.95353 19.3495 6.95434C19.3788 6.95515 19.4078 6.94933 19.4345 6.93731C19.4612 6.9253 19.4849 6.9074 19.5037 6.88494C19.5226 6.86248 19.5362 6.83604 19.5435 6.80759L21.0639 1.67914C21.0809 1.61606 21.0762 1.54903 21.0504 1.48899C21.0247 1.42895 20.9794 1.37946 20.922 1.34858C20.922 1.34858 17.7657 -0.459747 12.0508 0.551397C4.581 1.87363 -1.14 9.22941 0.193894 16.821C1.52195 24.3816 9.42365 29.2594 16.8626 27.9428C22.5775 26.9312 24.9262 24.1474 24.9262 24.1474C24.9692 24.0985 24.9946 24.0366 24.9983 23.9715C25.002 23.9064 24.9838 23.8419 24.9466 23.7885L21.7716 19.4912C21.755 19.4671 21.7332 19.447 21.7078 19.4324C21.6824 19.4179 21.6541 19.4092 21.6249 19.4071C21.5958 19.405 21.5665 19.4095 21.5393 19.4202C21.5121 19.431 21.4877 19.4477 21.4678 19.4692C21.4678 19.4692 19.8122 21.3096 16.7473 21.8511Z" fill="white"/>
<path d="M1.92586 5.87732C1.92983 5.90078 1.97261 5.86372 2.04273 5.77832C1.96349 5.83111 1.92376 5.86606 1.92586 5.87732Z" fill="#61B8F5"/>
<path d="M16.1485 24.754C19.2608 25.8925 21.8452 25.8662 22.8182 25.8015C24.2739 24.9213 24.9279 24.1471 24.9279 24.1471C24.9708 24.0982 24.9962 24.0362 24.9999 23.9711C25.0036 23.906 24.9854 23.8416 24.9482 23.7881L21.772 19.4909C21.7554 19.4667 21.7336 19.4467 21.7082 19.4321C21.6828 19.4175 21.6545 19.4089 21.6254 19.4068C21.5962 19.4046 21.567 19.4091 21.5398 19.4199C21.5126 19.4306 21.4881 19.4473 21.4682 19.4688C21.4682 19.4688 19.8127 21.3093 16.7468 21.8517C14.4402 22.2599 12.5198 21.9627 10.9922 21.2417C12.3921 22.826 14.1647 24.0334 16.1485 24.754Z" fill="#0E73B9"/>
<path d="M7.4707 17.8574C7.47865 20.6996 7.65371 24.9807 8.55848 26.9488C11.1349 28.0477 14.0317 28.4435 16.8617 27.9426C19.5629 27.4645 21.513 26.5903 22.8169 25.8016C21.8439 25.8663 19.2596 25.8926 16.1472 24.7541C14.1637 24.0331 12.3914 22.8253 10.9918 21.2409C9.37513 20.4775 8.19854 19.2385 7.4707 17.8574Z" fill="#1894EA"/>
<path d="M6.6944 15.6044C6.34801 13.6325 6.7928 11.2931 8.30877 9.42773C6.09908 10.1259 2.8444 12.0189 1.14401 14.9374C0.839675 15.4654 0.502596 15.9737 0.134766 16.4593C0.152373 16.5799 0.171695 16.7005 0.192731 16.8213C1.01546 21.5056 4.362 25.1594 8.55816 26.9494C7.65339 24.9813 7.47833 20.7002 7.47038 17.858C7.09679 17.1518 6.83499 16.3915 6.6944 15.6044Z" fill="#3AA5F0"/>
<path d="M8.30968 9.42736C9.5017 7.95921 11.3599 6.78454 14.0176 6.31416C16.3883 5.89469 18.231 6.49434 18.9442 6.78759C17.8835 6.18349 15.0792 4.79979 10.8966 4.29C7.98339 3.93504 5.60355 4.39111 4.02868 4.90489C1.12646 7.93903 -0.49633 12.1453 0.135676 16.4589C0.503506 15.9733 0.840585 15.465 1.14492 14.937C2.84531 12.0186 6.09999 10.1255 8.30968 9.42736Z" fill="#5FB5F1"/>
<path d="M10.8972 4.28999C15.0798 4.79979 17.8841 6.18348 18.9448 6.78759C19.1535 6.87322 19.2659 6.93304 19.2659 6.93304C19.2919 6.94652 19.3206 6.95394 19.3499 6.95475C19.3791 6.95556 19.4082 6.94974 19.4349 6.93773C19.4616 6.92571 19.4852 6.90781 19.5041 6.88535C19.523 6.86289 19.5365 6.83645 19.5438 6.808L21.0642 1.67955C21.0813 1.61647 21.0766 1.54944 21.0508 1.4894C21.025 1.42937 20.9798 1.37987 20.9224 1.34899C20.9224 1.34899 17.7661 -0.459804 12.0511 0.55134C8.94861 1.10055 6.14736 2.68999 4.0293 4.90489C5.60417 4.39111 7.98401 3.93504 10.8972 4.28999Z" fill="#A1D5FA"/>
</svg>
