<svg xmlns="http://www.w3.org/2000/svg" width="100" height="90" fill="none" viewBox="0 0 100 90"><path fill="#0E73B9" d="M82.2765 16.8821C75.6205 10.971 65.7057 8.48528 56.9633 9.29424C52.5652 9.70128 49.0273 11.524 45.0183 13.1496C39.3863 15.428 35.6641 14.4296 29.9143 13.8152C13.2205 12.0002 5.51494 28.1282 5.22566 40.1602C4.87238 54.7982 15.1201 68.1563 29.5457 71.876C39.2557 74.3797 48.61 74.4846 57.1117 71.3333C63.7473 68.8705 65.4036 63.4638 67.5105 57.2379C69.1233 52.4814 70.5594 47.1131 74.1255 43.3755C77.3844 39.9554 80.7405 42.8354 84.4935 40.7566C94.032 35.4677 87.888 21.8638 82.2765 16.8821Z"/><path fill="#fff" d="M82.2765 16.8821C75.6205 10.971 65.7057 8.48528 56.9633 9.29424C52.5652 9.70128 49.0273 11.524 45.0183 13.1496C39.3863 15.428 35.6641 14.4296 29.9143 13.8152C13.2205 12.0002 5.51494 28.1282 5.22566 40.1602C4.87238 54.7982 15.1201 68.1563 29.5457 71.876C39.2557 74.3797 48.61 74.4846 57.1117 71.3333C63.7473 68.8705 65.4036 63.4638 67.5105 57.2379C69.1233 52.4814 70.5594 47.1131 74.1255 43.3755C77.3844 39.9554 80.7405 42.8354 84.4935 40.7566C94.032 35.4677 87.888 21.8638 82.2765 16.8821Z" opacity=".9"/><path fill="#F5F5F5" d="M50.0011 89.455C77.4142 89.455 99.6369 88.1576 99.6369 86.5571C99.6369 84.9566 77.4142 83.6592 50.0011 83.6592C22.588 83.6592 0.365234 84.9566 0.365234 86.5571C0.365234 88.1576 22.588 89.455 50.0011 89.455Z"/><path fill="#0E73B9" d="M67.0229 5.4209H8.00977L11.8933 85.7895H70.9064L67.0229 5.4209Z"/><path fill="#000" d="M67.0229 5.4209H8.00977L11.8933 85.7895H70.9064L67.0229 5.4209Z" opacity=".2"/><path fill="#0E73B9" d="M67.5698 5.4209H8.55664L12.4427 85.7895H71.4558L67.5698 5.4209Z"/><path fill="#000" d="M64.4513 8.12402H11.252L14.9691 82.1567L61.2283 82.0952L68.916 75.2805L64.4513 8.12402Z" opacity=".2"/><path fill="#fff" d="M64.8584 8.12158C65.4256 30.2928 67.2161 52.4158 70.2216 74.3897C66.0061 77.2911 61.812 80.1924 57.6392 83.0937H17.8516C14.0962 58.2644 11.8921 33.2251 11.252 8.12158H64.8584Z"/><path fill="#EBEBEB" d="M70.223 74.3892C66.0076 77.2906 61.8134 80.1919 57.6406 83.0932C58.552 79.2532 59.5017 75.4132 60.4899 71.5732L70.223 74.3892Z"/><path fill="#0E73B9" d="M25.6777 14.8952C25.7784 17.6054 25.8961 20.3173 26.031 23.0309H17.8978C17.7613 20.3173 17.6436 17.6054 17.5446 14.8952H25.6777ZM26.5071 14.0376H16.6562C16.7706 17.3195 16.9131 20.6031 17.0838 23.8885H26.9372C26.7665 20.6049 26.624 17.3212 26.5097 14.0376H26.5071Z"/><path fill="#E0E0E0" d="M58.914 17.9494H31.0561C31.0305 17.3376 31.0074 16.7232 30.9844 16.1113H58.8397C58.8628 16.7232 58.8884 17.3376 58.914 17.9494Z"/><path fill="#E0E0E0" d="M53.028 21.8151H31.2271C31.1989 21.2007 31.1682 20.5889 31.1426 19.9771H52.941C52.97 20.5897 52.999 21.2024 53.028 21.8151Z"/><path fill="#0E73B9" d="M26.4767 30.8288C26.6474 33.5424 26.8377 36.256 27.0476 38.9696H18.9119C18.702 36.256 18.5117 33.5424 18.341 30.8288H26.4767ZM27.2806 29.9712H17.4297C17.6311 33.2565 17.8606 36.5419 18.1183 39.8272H27.982C27.726 36.5436 27.4956 33.2582 27.2908 29.9712H27.2806Z"/><path fill="#E0E0E0" d="M42.1637 33.8856H31.9237C31.8827 33.2712 31.8392 32.6593 31.8008 32.0449H42.0408C42.0792 32.6593 42.1201 33.2712 42.1637 33.8856Z"/><path fill="#E0E0E0" d="M51.8608 33.8856H44.3319C44.2909 33.2712 44.2474 32.6593 44.209 32.0449H51.7379C51.7763 32.6593 51.8173 33.2712 51.8608 33.8856Z"/><path fill="#E0E0E0" d="M56.5868 37.7537H32.2079C32.1619 37.1393 32.1183 36.5275 32.0723 35.9131H56.4511C56.4972 36.5275 56.5407 37.1393 56.5868 37.7537Z"/><path fill="#0E73B9" d="M27.699 46.7702C27.943 49.4838 28.2059 52.1974 28.4875 54.911H20.3518C20.0702 52.1974 19.8074 49.4838 19.5633 46.7702H27.699ZM28.4823 45.9126H18.6289C18.919 49.1996 19.2365 52.4858 19.5812 55.7712H29.4347C29.0933 52.4841 28.7759 49.1979 28.4823 45.9126Z"/><path fill="#E0E0E0" d="M61.2882 51.8564H33.4277L33.6121 53.6945H61.4725L61.2882 51.8564Z"/><path fill="#E0E0E0" d="M54.8635 47.9883H33.0625C33.1188 48.6001 33.1751 49.2145 33.234 49.8264H55.0324C54.9761 49.2145 54.9172 48.6078 54.8635 47.9883Z"/><path fill="#0E73B9" d="M29.3451 62.7111C29.6625 65.4247 29.9979 68.1375 30.3512 70.8494H22.2155C21.8622 68.1392 21.5268 65.4264 21.2094 62.7111H29.3451ZM30.1131 61.8535H20.252C20.6274 65.1406 21.0328 68.425 21.468 71.707H31.3112C30.8794 68.425 30.474 65.1406 30.0952 61.8535H30.1131Z"/><path fill="#E0E0E0" d="M62.8209 65.7596H34.9604C34.8862 65.1452 34.8119 64.5333 34.7402 63.9189H62.5982C62.6724 64.541 62.7441 65.1529 62.8209 65.7596Z"/><path fill="#E0E0E0" d="M48.1261 69.633H35.4439C35.3645 69.0212 35.2877 68.4068 35.2109 67.7949H47.8932C47.97 68.4068 48.0468 69.0212 48.1261 69.633Z"/><path fill="#E0E0E0" d="M55.701 69.633H50.2251C50.1458 69.0212 50.069 68.4068 49.9922 67.7949H55.468C55.5448 68.4068 55.6319 69.0212 55.701 69.633Z"/><path fill="#0E73B9" d="M22.0958 21.869L21.7349 21.2956C20.9464 20.0412 19.3387 18.9225 18.7832 18.5948L19.1979 17.8601C20.2878 18.5219 21.2616 19.3582 22.0805 20.3356C23.3195 18.6485 25.1525 16.9052 27.6613 15.0312L28.1912 15.7224C25.5134 17.7269 23.6395 19.5625 22.4568 21.3289L22.0958 21.869Z"/><path fill="#0E73B9" d="M23.067 37.8072L22.6907 37.2338C21.8715 35.9794 20.2331 34.8581 19.6699 34.5304L20.0616 33.7957C21.1723 34.4578 22.1689 35.2945 23.0133 36.2738C24.2062 34.5842 25.9906 32.8408 28.4507 30.9644C28.6325 31.1948 28.8168 31.4252 28.9986 31.6581C26.3746 33.6652 24.5493 35.4981 23.4152 37.2671C23.2974 37.4463 23.1822 37.628 23.067 37.8072Z"/><path fill="#0E73B9" d="M24.4809 53.7897L24.0892 53.2162C23.2341 51.9618 21.565 50.8405 20.9941 50.5154C21.117 50.2594 21.2501 50.0239 21.3679 49.7807C22.4959 50.4438 23.5134 51.2791 24.3836 52.2562C25.533 50.5666 27.2713 48.8258 29.6777 46.9468L30.246 47.6405C27.686 49.6476 25.894 51.4805 24.8111 53.2495L24.4809 53.7897Z"/><path fill="#EBEBEB" d="M50.2888 78.678C48.7784 78.678 47.908 78.1199 47.14 77.6284C46.372 77.1368 45.7115 76.7119 44.4366 76.7119C43.1617 76.7119 42.5934 77.1573 41.9918 77.6284C41.3902 78.0994 40.6529 78.678 39.1425 78.678C37.6321 78.678 36.7618 78.1199 35.9963 77.6284C35.2309 77.1368 34.5704 76.7119 33.293 76.7119C32.0155 76.7119 31.4498 77.1573 30.8482 77.6284C30.2466 78.0994 29.5093 78.678 28.0014 78.678C26.4936 78.678 25.6206 78.1199 24.8526 77.6284C24.0846 77.1368 23.4267 76.7119 22.1493 76.7119C22.116 76.4559 22.0802 76.2204 22.0469 75.9746C23.5573 75.9746 24.4251 76.5327 25.1931 77.0242C25.9611 77.5157 26.619 77.9407 27.8939 77.9407C29.1688 77.9407 29.7371 77.4953 30.3387 77.0242C30.9403 76.5532 31.6802 75.9746 33.1905 75.9746C34.7009 75.9746 35.5662 76.5327 36.3342 77.0242C37.1022 77.5157 37.7627 77.9407 39.0376 77.9407C40.3125 77.9407 40.8808 77.4953 41.4824 77.0242C42.084 76.5532 42.8238 75.9746 44.3342 75.9746C45.8446 75.9746 46.7125 76.5327 47.4805 77.0242C48.2485 77.5157 48.9064 77.9407 50.1838 77.9407C50.2171 78.1864 50.2555 78.4322 50.2888 78.678Z"/><path fill="#263238" d="M52.4535 7.40989C51.5882 5.10589 49.5889 3.59293 47.4385 3.59293H43.0557C42.7295 3.59008 42.4112 3.49154 42.1405 3.30951C41.8697 3.12748 41.6583 2.86997 41.5325 2.56893C41.2227 1.83313 40.7046 1.20391 40.042 0.75864C39.3793 0.313374 38.6009 0.0714745 37.8026 0.0626866C37.0303 0.0548549 36.2757 0.293709 35.6486 0.744482C35.0215 1.19525 34.5546 1.83442 34.3159 2.56893C34.2186 2.86946 34.0278 3.13098 33.7712 3.31523C33.5146 3.49948 33.2058 3.5968 32.89 3.59293H28.5098C26.3569 3.59293 24.5034 5.11357 23.8634 7.40989L23.6074 8.32381H52.7914L52.4535 7.40989Z"/><path fill="#0E73B9" d="M52.6105 9.22501H23.8873C23.645 9.22219 23.4129 9.12763 23.2376 8.96041C23.0623 8.79319 22.9569 8.56573 22.9427 8.32388C22.9364 8.20768 22.9539 8.09143 22.9943 7.98227C23.0346 7.87312 23.0969 7.77338 23.1772 7.6892C23.2575 7.60502 23.3543 7.53818 23.4614 7.4928C23.5686 7.44741 23.6839 7.42445 23.8003 7.42532H52.5234C52.7653 7.42809 52.9971 7.52229 53.1723 7.68897C53.3476 7.85566 53.4532 8.08249 53.4681 8.32388C53.4747 8.44029 53.4574 8.55682 53.4173 8.66628C53.3771 8.77574 53.3149 8.87579 53.2345 8.96025C53.1541 9.04471 53.0573 9.11178 52.9499 9.15732C52.8426 9.20286 52.7271 9.2259 52.6105 9.22501Z"/><path fill="#000" d="M52.6105 9.22501H23.8873C23.645 9.22219 23.4129 9.12763 23.2376 8.96041C23.0623 8.79319 22.9569 8.56573 22.9427 8.32388C22.9364 8.20768 22.9539 8.09143 22.9943 7.98227C23.0346 7.87312 23.0969 7.77338 23.1772 7.6892C23.2575 7.60502 23.3543 7.53818 23.4614 7.4928C23.5686 7.44741 23.6839 7.42445 23.8003 7.42532H52.5234C52.7653 7.42809 52.9971 7.52229 53.1723 7.68897C53.3476 7.85566 53.4532 8.08249 53.4681 8.32388C53.4747 8.44029 53.4574 8.55682 53.4173 8.66628C53.3771 8.77574 53.3149 8.87579 53.2345 8.96025C53.1541 9.04471 53.0573 9.11178 52.9499 9.15732C52.8426 9.20286 52.7271 9.2259 52.6105 9.22501Z" opacity=".2"/><path fill="#FFC3BD" d="M78.3954 85.0191H76.5189L76.332 80.6748H78.2085L78.3954 85.0191Z"/><path fill="#FFC3BD" d="M89.6565 85.0191H87.78L86.8379 80.6748H88.7118L89.6565 85.0191Z"/><path fill="#263238" d="M87.6467 84.8018H89.7535C89.7907 84.8016 89.8268 84.8142 89.8557 84.8375C89.8846 84.8608 89.9046 84.8934 89.9122 84.9298L90.2834 86.5989C90.2919 86.6394 90.2911 86.6812 90.2812 86.7214C90.2713 86.7615 90.2525 86.799 90.2262 86.8309C90.2 86.8628 90.1668 86.8885 90.1293 86.9059C90.0918 86.9233 90.0509 86.9321 90.0095 86.9317C89.2748 86.9189 88.9164 86.8753 87.9897 86.8753C87.4188 86.8753 86.2438 86.9342 85.4579 86.9342C84.6719 86.9342 84.567 86.1662 84.8895 86.0869C86.3359 85.7694 86.8787 85.3342 87.342 84.917C87.4262 84.8428 87.5345 84.8018 87.6467 84.8018Z"/><path fill="#263238" d="M76.5309 84.8018H78.5789C78.616 84.8016 78.6521 84.8142 78.681 84.8375C78.71 84.8608 78.7299 84.8934 78.7376 84.9298L79.1088 86.5989C79.1179 86.638 79.1182 86.6786 79.1097 86.7179C79.1012 86.7572 79.0841 86.794 79.0596 86.8259C79.0351 86.8577 79.0039 86.8837 78.9681 86.902C78.9323 86.9203 78.8929 86.9304 78.8528 86.9317C78.113 86.9189 77.0454 86.8753 76.1162 86.8753C75.0307 86.8753 74.0938 86.9342 72.8189 86.9342C72.0509 86.9342 71.8359 86.1662 72.1584 86.0869C73.6253 85.7643 74.8234 85.731 76.0906 84.9477C76.2217 84.8606 76.3737 84.8102 76.5309 84.8018Z"/><path fill="#FFC3BD" d="M80.2064 16.5874C79.9504 17.9596 79.8019 19.6594 80.7619 20.5759C80.7619 20.5759 80.2115 21.9685 77.6618 21.9685C75.3322 21.9685 76.4995 20.5759 76.4995 20.5759C78.0355 20.2098 77.9485 18.318 77.6822 17.2479L80.2064 16.5874Z"/><path fill="#0E73B9" d="M75.7695 20.7678C75.8207 20.4274 76.4198 20.0306 77.1007 19.8821C77.7817 19.7336 80.398 19.4034 81.1967 19.7336C81.9954 20.0638 81.0585 21.0418 81.0585 21.0418L75.7695 20.7678Z"/><path fill="#fff" d="M75.7695 20.7678C75.8207 20.4274 76.4198 20.0306 77.1007 19.8821C77.7817 19.7336 80.398 19.4034 81.1967 19.7336C81.9954 20.0638 81.0585 21.0418 81.0585 21.0418L75.7695 20.7678Z" opacity=".4"/><path fill="#000" d="M76.332 80.6768L76.4293 82.9142H78.3058L78.2085 80.6768H76.332Z" opacity=".2"/><path fill="#000" d="M88.7144 80.6768H86.8379L87.3243 82.9142H89.2008L88.7144 80.6768Z" opacity=".2"/><path fill="#FFC3BD" d="M84.6511 22.2656L82.3906 23.776C82.3906 23.776 85.6367 29.5488 85.3654 30.473C84.9942 31.7325 84.477 34.4845 83.773 35.8823C83.8652 36.1843 84.3337 36.873 84.5948 36.9907C86.3868 35.6288 88.1967 31.3587 88.1301 30.1632C87.974 27.4522 84.6511 22.2656 84.6511 22.2656Z"/><path fill="#B55B52" d="M83.7705 35.8873L81.9785 35.749L82.918 37.7228C82.918 37.7228 84.4822 37.7919 84.7433 36.5964L83.7705 35.8873Z"/><path fill="#0E73B9" d="M92.6298 45.5128L92.4788 45.797L91.465 47.7144L55.4766 28.686L56.6388 26.4844L92.6298 45.5128Z"/><path fill="#0E73B9" d="M94.956 41.1176L94.2136 42.5205L93.7938 43.3141L57.8027 24.2856L58.965 22.084L94.956 41.1176Z"/><path fill="#0E73B9" d="M57.8151 24.2791L56.6504 26.478L92.6267 45.5345L93.7914 43.3356L57.8151 24.2791Z"/><path fill="#000" d="M57.8151 24.2791L56.6504 26.478L92.6267 45.5345L93.7914 43.3356L57.8151 24.2791Z" opacity=".2"/><path fill="#0E73B9" d="M53.924 22.3757L52.877 24.3571L55.4754 28.6861L58.9646 22.0864L53.924 22.3757Z"/><path fill="#fff" d="M53.924 22.3757L52.877 24.3571L55.4754 28.6861L58.9646 22.0864L53.924 22.3757Z" opacity=".8"/><path fill="#0E73B9" d="M51.7637 22.5009L52.8773 24.3569L53.9243 22.3755L51.7637 22.5009Z"/><path fill="#B55B52" d="M80.5391 36.6476L81.476 38.3935L82.9275 37.7228L81.988 35.749L80.5391 36.6476Z"/><path fill="#263238" d="M84.1101 21.0011C85.8842 21.2571 87.9168 27.4011 87.9168 27.4011L84.1895 29.5055C84.1895 29.5055 82.5485 26.5922 81.7421 24.4162C80.8922 22.1403 82.208 20.7247 84.1101 21.0011Z"/><path fill="#000" d="M83.0783 23.1075C82.2719 22.3702 82.766 25.5267 83.15 27.5465C83.3471 27.9407 83.534 28.2991 83.6927 28.5987C84.5913 27.0115 84.1894 24.1238 83.0783 23.1075Z" opacity=".2"/><path fill="#263238" d="M73.6063 21.0984C73.6063 21.0984 71.3919 26.7611 73.4937 37.3083H83.5366C83.6057 35.7723 82.638 28.2561 84.1228 21.0011C83.0136 20.7869 81.8917 20.645 80.7641 20.5761C79.3445 20.4942 77.9213 20.4942 76.5017 20.5761C75.5243 20.6739 74.5562 20.8485 73.6063 21.0984Z"/><path fill="#FFC3BD" d="M75.1493 23.73L72.6201 22.729C72.6201 22.729 69.7068 28.6759 68.7801 28.9754C67.5333 29.385 64.9733 30.5114 63.422 30.7316C63.2274 30.9876 62.9253 31.7556 62.974 32.0372C65.1116 32.736 69.6607 31.8093 70.6028 31.0772C72.7634 29.408 75.1493 23.73 75.1493 23.73Z"/><path fill="#000" d="M75.4335 23.0543C75.0162 22.0917 74.2175 21.6898 73.3855 21.8306C73.0629 23.0107 72.5177 25.604 72.6175 29.5106L73.214 29.7973C73.214 29.7973 76.1477 24.7003 75.4335 23.0543Z" opacity=".2"/><path fill="#263238" d="M75.8325 22.381C76.4623 24.0603 73.2725 29.0011 73.2725 29.0011L69.5195 26.9531C70.0834 25.4164 70.8103 23.9445 71.6879 22.5627C73.0063 20.5941 75.1387 20.5403 75.8325 22.381Z"/><path fill="#FFC3BD" d="M63.5136 30.7266L61.2812 31.2002L62.4128 33.2661C63.0367 32.9557 63.6037 32.542 64.0896 32.0424L63.5136 30.7266Z"/><path fill="#FFC3BD" d="M60.2285 31.6687L61.1194 32.9026L62.4147 33.2764L61.2832 31.2104L60.2285 31.6687Z"/><path fill="#263238" d="M75.9525 14.6138C75.9525 14.7648 75.8578 14.8698 75.758 14.8698C75.6581 14.8698 75.5864 14.7366 75.5967 14.5856C75.6069 14.4346 75.6914 14.3296 75.7912 14.3296C75.8911 14.3296 75.9628 14.4627 75.9525 14.6138Z"/><path fill="#ED847E" d="M76.0872 14.6265C75.8805 15.0775 75.6126 15.4979 75.291 15.8757C75.3899 15.9557 75.5051 16.013 75.6285 16.0435C75.7519 16.074 75.8805 16.0771 76.0053 16.0524L76.0872 14.6265Z"/><path fill="#263238" d="M75.7628 14.0913C75.7492 14.0884 75.7362 14.0832 75.7244 14.0759C75.7145 14.0697 75.7059 14.0615 75.6992 14.0519C75.6925 14.0423 75.6878 14.0314 75.6854 14.0199C75.683 14.0085 75.683 13.9966 75.6853 13.9851C75.6876 13.9736 75.6922 13.9627 75.6988 13.953C75.773 13.8332 75.8745 13.7326 75.9951 13.6596C76.1157 13.5866 76.2519 13.5433 76.3925 13.5332C76.4159 13.5344 76.438 13.5443 76.4545 13.5608C76.4711 13.5774 76.4809 13.5994 76.4821 13.6228C76.4821 13.6466 76.4727 13.6694 76.4559 13.6862C76.4391 13.703 76.4163 13.7124 76.3925 13.7124C76.2834 13.7226 76.1781 13.7582 76.0852 13.8165C75.9922 13.8747 75.9143 13.9539 75.8575 14.0478C75.8482 14.064 75.8341 14.0769 75.8171 14.0847C75.8001 14.0925 75.7811 14.0948 75.7628 14.0913Z"/><path fill="#FFC3BD" d="M81.0417 14.4833C80.8216 16.3316 80.7857 17.4222 79.795 18.3233C78.3025 19.675 76.0625 18.6945 75.7246 16.8155C75.4225 15.1259 75.8347 12.3892 77.6932 11.7543C78.1022 11.6128 78.5405 11.5782 78.9666 11.6537C79.3928 11.7292 79.7925 11.9123 80.1279 12.1857C80.4634 12.4591 80.7234 12.8137 80.8834 13.2158C81.0433 13.6179 81.0978 14.0542 81.0417 14.4833Z"/><path fill="#263238" d="M77.3173 14.8442C76.6696 14.9722 75.6354 13.5334 76.4802 12.3123C76.0526 12.0998 74.6574 12.9395 74.1326 12.1562C73.6078 11.3728 75.0645 10.9555 74.7854 10.2925C75.7736 10.4947 74.1454 11.7286 75.085 11.6083C76.0245 11.488 77.1074 9.75232 78.157 10.464C80.013 11.7107 82.5423 9.632 81.5106 12.2355C82.7752 11.9795 83.6405 13.4746 82.4347 14.5114C80.0309 16.5722 81.5106 16.8435 79.9874 16.9485C79.2245 17.0048 77.4504 16.096 77.3173 14.8442Z"/><path fill="#FFC3BD" d="M78.2763 15.3281C78.1876 15.5129 78.0629 15.6781 77.9095 15.8139C77.7561 15.9498 77.577 16.0535 77.3828 16.1191C76.8708 16.2958 76.5764 15.8375 76.6967 15.3332C76.8043 14.8775 77.2087 14.2375 77.7387 14.2836C77.855 14.295 77.9666 14.3353 78.0633 14.401C78.16 14.4666 78.2386 14.5554 78.2921 14.6593C78.3456 14.7632 78.3722 14.8789 78.3694 14.9957C78.3666 15.1126 78.3346 15.2268 78.2763 15.3281Z"/><path fill="#0E73B9" d="M77.0508 37.3081C77.0508 37.3081 79.1807 51.6441 80.3481 57.0201C81.6281 62.9081 86.4485 82.4896 86.4485 82.4896H89.8841C89.8841 82.4896 86.7071 63.3766 85.9749 57.5526C85.1839 51.2345 83.525 37.3158 83.525 37.3158L77.0508 37.3081Z"/><path fill="#fff" d="M77.0508 37.3081C77.0508 37.3081 79.1807 51.6441 80.3481 57.0201C81.6281 62.9081 86.4485 82.4896 86.4485 82.4896H89.8841C89.8841 82.4896 86.7071 63.3766 85.9749 57.5526C85.1839 51.2345 83.525 37.3158 83.525 37.3158L77.0508 37.3081Z" opacity=".2"/><path fill="#000" d="M79.5801 42.3206C79.4213 42.0953 79.278 42.0185 79.1449 42.0646H79.1167C79.0864 42.0778 79.058 42.095 79.0322 42.1158C79.005 42.1379 78.9801 42.1628 78.958 42.19L78.917 42.2412L78.8633 42.3257C78.8188 42.4002 78.7803 42.4781 78.7481 42.5586C78.7276 42.6073 78.7071 42.6585 78.6892 42.7097C78.6713 42.7609 78.6431 42.8402 78.6226 42.9119C78.6021 42.9836 78.5637 43.1065 78.5356 43.2114C78.5356 43.2396 78.5228 43.2652 78.5151 43.2934C78.5074 43.3215 78.4869 43.4111 78.4741 43.47C78.4613 43.5289 78.4511 43.5724 78.4409 43.6236C78.4178 43.7234 78.3973 43.8284 78.3769 43.9359C78.3564 44.0434 78.3333 44.1689 78.3129 44.2892C78.3129 44.3302 78.3001 44.3711 78.2924 44.4146C78.2668 44.5682 78.2437 44.7244 78.2207 44.8857C78.789 48.4543 79.4649 52.5452 80.0127 55.3996C80.0383 55.3074 80.0665 55.2101 80.0895 55.1052C80.2013 54.629 80.2868 54.147 80.3455 53.6613C80.8293 49.9826 80.6066 43.7874 79.5801 42.3206Z" opacity=".2"/><path fill="#0E73B9" d="M73.4929 37.3081C73.4929 37.3081 73.2369 51.3318 73.4391 57.0534C73.6516 63.0028 75.7303 82.4819 75.7303 82.4819H78.9073C78.9073 82.4819 79.0225 63.3484 79.1633 57.5065C79.3169 51.1372 80.0849 37.3081 80.0849 37.3081H73.4929Z"/><path fill="#fff" d="M73.4929 37.3081C73.4929 37.3081 73.2369 51.3318 73.4391 57.0534C73.6516 63.0028 75.7303 82.4819 75.7303 82.4819H78.9073C78.9073 82.4819 79.0225 63.3484 79.1633 57.5065C79.3169 51.1372 80.0849 37.3081 80.0849 37.3081H73.4929Z" opacity=".2"/><path fill="#263238" d="M79.1158 81.5089C79.1286 81.5089 79.1158 82.5457 79.1158 82.5457H75.4524L75.2988 81.3809L79.1158 81.5089Z"/><path fill="#263238" d="M89.8845 81.5861C89.8999 81.5861 90.0561 82.5461 90.0561 82.5461H86.2801L85.9473 81.4453L89.8845 81.5861Z"/><path fill="#0E73B9" d="M87.028 85.129C86.9004 85.1394 86.7731 85.106 86.6671 85.0343C86.6326 85.0064 86.606 84.97 86.5899 84.9287C86.5737 84.8874 86.5686 84.8427 86.5749 84.7988C86.5752 84.7732 86.5822 84.7481 86.5952 84.7261C86.6083 84.7041 86.6269 84.6859 86.6491 84.6733C86.8565 84.5684 87.4632 84.9293 87.5323 84.9805C87.5394 84.9857 87.5448 84.9928 87.548 85.001C87.5512 85.0091 87.5519 85.018 87.5502 85.0266C87.5489 85.0352 87.5451 85.0433 87.5391 85.0497C87.5332 85.056 87.5255 85.0605 87.517 85.0625C87.3569 85.1024 87.1929 85.1248 87.028 85.129ZM86.749 84.7425C86.7296 84.7381 86.7095 84.7381 86.6901 84.7425C86.6812 84.7476 86.6738 84.7551 86.6689 84.7641C86.6639 84.7731 86.6615 84.7834 86.6619 84.7937C86.658 84.8235 86.6616 84.8539 86.6723 84.8821C86.683 84.9102 86.7006 84.9353 86.7234 84.9549C86.9324 85.052 87.1708 85.0649 87.389 84.9908C87.1936 84.8675 86.9763 84.7832 86.749 84.7425Z"/><path fill="#0E73B9" d="M87.5043 85.0649C87.4977 85.0671 87.4905 85.0671 87.4838 85.0649C87.2893 84.96 86.9155 84.5529 86.9539 84.3404C86.9604 84.3079 86.978 84.2787 87.0037 84.2576C87.0294 84.2366 87.0615 84.2252 87.0947 84.2252C87.1285 84.2202 87.163 84.2226 87.1957 84.2323C87.2284 84.242 87.2586 84.2589 87.2842 84.2816C87.5017 84.4582 87.5401 85.0009 87.5401 85.024C87.54 85.0319 87.538 85.0397 87.5345 85.0467C87.5309 85.0538 87.5259 85.06 87.5197 85.0649C87.5146 85.0658 87.5094 85.0658 87.5043 85.0649ZM87.1254 84.2969H87.1178C87.0589 84.2969 87.0538 84.3302 87.0512 84.343C87.0282 84.4659 87.2662 84.7757 87.4608 84.9216C87.4474 84.7082 87.3698 84.5038 87.2381 84.3353C87.2217 84.3212 87.2025 84.3109 87.1817 84.3052C87.1608 84.2994 87.139 84.2983 87.1178 84.302L87.1254 84.2969Z"/><path fill="#0E73B9" d="M75.7518 85.1293C75.5912 85.1442 75.4304 85.1036 75.2961 85.0141C75.2667 84.9871 75.2439 84.9536 75.2297 84.9163C75.2154 84.8789 75.2102 84.8388 75.2142 84.799C75.2143 84.7747 75.221 84.7509 75.2336 84.7302C75.2463 84.7094 75.2643 84.6925 75.2859 84.6813C75.5137 84.5533 76.269 84.9373 76.3534 84.9808C76.362 84.9847 76.3689 84.9914 76.3731 84.9998C76.3773 85.0082 76.3785 85.0177 76.3765 85.0269C76.3754 85.036 76.3713 85.0445 76.3648 85.051C76.3583 85.0575 76.3498 85.0616 76.3406 85.0627C76.147 85.1041 75.9498 85.1264 75.7518 85.1293ZM75.4114 84.7427C75.3832 84.7416 75.3552 84.7469 75.3294 84.7581C75.3209 84.763 75.3138 84.7701 75.3089 84.7786C75.3039 84.7872 75.3013 84.7969 75.3013 84.8067C75.2976 84.8328 75.3006 84.8594 75.31 84.884C75.3194 84.9087 75.3349 84.9305 75.355 84.9475C75.4702 85.0499 75.78 85.0679 76.1947 84.9987C75.9498 84.8701 75.685 84.7835 75.4114 84.7427Z"/><path fill="#0E73B9" d="M76.3338 85.0654H76.3158C76.088 84.963 75.64 84.5534 75.6759 84.3461C75.6759 84.2974 75.7194 84.2334 75.8397 84.2232C75.8852 84.2164 75.9316 84.2196 75.9758 84.2324C76.02 84.2452 76.0609 84.2674 76.0957 84.2974C76.3338 84.4946 76.3824 84.9989 76.385 85.0219C76.3861 85.0294 76.385 85.037 76.3818 85.0438C76.3786 85.0506 76.3735 85.0564 76.367 85.0603C76.357 85.0662 76.3451 85.068 76.3338 85.0654ZM75.8755 84.2974H75.8576C75.7783 84.2974 75.7731 84.3358 75.7706 84.3486C75.7501 84.4741 76.0547 84.7941 76.2826 84.9323C76.2604 84.7173 76.1708 84.5147 76.0266 84.3538C75.983 84.321 75.93 84.3031 75.8755 84.3026V84.2974Z"/></svg>