<svg xmlns="http://www.w3.org/2000/svg" width="16" height="16" fill="none" viewBox="0 0 16 16"><g clip-path="url(#clip0)"><path fill="#0E73B9" fill-rule="evenodd" d="M10.3983 0.959531C11.6777 -0.319844 13.7592 -0.319844 15.0389 0.959531C16.3183 2.23891 16.3183 4.32047 15.0389 5.59984L12.108 8.53078C12.1942 7.76828 12.0617 6.97297 11.7236 6.26359L13.713 4.27422C14.2633 3.72391 14.2633 2.83578 13.713 2.28547C13.1627 1.73516 12.2745 1.73516 11.7242 2.28547L6.92422 7.08547C6.37391 7.63578 6.37391 8.52391 6.92422 9.07422C7.04328 9.19359 7.1761 9.27297 7.31516 9.34609L5.9564 10.7048C5.83703 10.6123 5.71109 10.5127 5.59828 10.4002C5.51049 10.3124 5.43481 10.2127 5.36182 10.1165C5.34102 10.0891 5.32043 10.0619 5.29984 10.0355L5.29328 10.042C4.3489 8.78297 4.42296 6.93484 5.59828 5.75953L10.3983 0.959531ZM10.4766 6.04294C10.4974 6.07035 10.518 6.09748 10.5386 6.12397L10.5452 6.1174C11.4898 7.37678 11.4152 9.2249 10.2402 10.3999L5.59984 15.0402C4.32047 16.3196 2.23891 16.3196 0.959531 15.0402C-0.319844 13.7608 -0.319844 11.6793 0.959531 10.3999L3.73047 7.62896C3.64422 8.39115 3.77703 9.18678 4.11484 9.89615L2.28516 11.7255C1.73516 12.2758 1.73516 13.1643 2.28516 13.7143C2.83547 14.2646 3.72391 14.2646 4.27391 13.7143L8.91453 9.07397C9.46453 8.52365 9.46453 7.63553 8.91453 7.08522C8.79516 6.96584 8.66266 6.88647 8.52328 6.81334L9.88234 5.45459C10.0017 5.5474 10.1277 5.64678 10.2402 5.75928C10.3279 5.84706 10.4036 5.94677 10.4766 6.04294Z" clip-rule="evenodd"/></g><defs><clipPath id="clip0"><rect width="16" height="16" fill="#fff"/></clipPath></defs></svg>