<svg fill="none" height="46" viewBox="0 0 124 46" width="124" xmlns="http://www.w3.org/2000/svg"><g clip-rule="evenodd" fill="#fff" fill-rule="evenodd"><path d="m27.3712 35.3145c-9.8621 1.7469-15.4072-4.3979-16.4283-10.2099-1.01149-5.7595 2.1052-13.4372 11.9673-15.18371 5.0091-.88649 8.5766 1.01151 8.5766 1.01151.0425.022.0894.0341.1372.0354.0478.0014.0953-.0081.139-.0278.0436-.0196.0823-.0489.1131-.0856s.053-.0799.0649-.1264l2.4849-8.38172c.0279-.1031.0202-.21265-.0219-.31077s-.1161-.17902-.21-.22948c0 0-5.1585-2.95546-14.4987-1.302886-12.2083 2.160996-21.55847 14.182956-19.378407 26.590356 2.170517 12.3567 15.084707 20.3289 27.242607 18.1771 9.3402-1.6533 13.1789-6.2031 13.1789-6.2031.0703-.0799.1117-.1812.1177-.2876.0061-.1063-.0237-.2117-.0844-.299l-5.1891-7.0233c-.0272-.0394-.0628-.0723-.1043-.0961s-.0877-.0379-.1354-.0414c-.0476-.0034-.0955.0039-.1399.0215-.0445.0175-.0845.0449-.117.08 0 0-2.7057 3.008-7.7148 3.8929z"/><path d="m27.3712 35.3145c-9.8621 1.7469-15.4072-4.3979-16.4283-10.2099-1.01149-5.7595 2.1052-13.4372 11.9673-15.18371 5.0091-.88649 8.5766 1.01151 8.5766 1.01151.0425.022.0894.0341.1372.0354.0478.0014.0953-.0081.139-.0278.0436-.0196.0823-.0489.1131-.0856s.053-.0799.0649-.1264l2.4849-8.38172c.0279-.1031.0202-.21265-.0219-.31077s-.1161-.17902-.21-.22948c0 0-5.1585-2.95546-14.4987-1.302886-12.2083 2.160996-21.55847 14.182956-19.378407 26.590356 2.170517 12.3567 15.084707 20.3289 27.242607 18.1771 9.3402-1.6533 13.1789-6.2031 13.1789-6.2031.0703-.0799.1117-.1812.1177-.2876.0061-.1063-.0237-.2117-.0844-.299l-5.1891-7.0233c-.0272-.0394-.0628-.0723-.1043-.0961s-.0877-.0379-.1354-.0414c-.0476-.0034-.0955.0039-.1399.0215-.0445.0175-.0845.0449-.117.08 0 0-2.7057 3.008-7.7148 3.8929z"/><path d="m27.3712 35.3145c-9.8621 1.7469-15.4072-4.3979-16.4283-10.2099-1.01149-5.7595 2.1052-13.4372 11.9673-15.18371 5.0091-.88649 8.5766 1.01151 8.5766 1.01151.0425.022.0894.0341.1372.0354.0478.0014.0953-.0081.139-.0278.0436-.0196.0823-.0489.1131-.0856s.053-.0799.0649-.1264l2.4849-8.38172c.0279-.1031.0202-.21265-.0219-.31077s-.1161-.17902-.21-.22948c0 0-5.1585-2.95546-14.4987-1.302886-12.2083 2.160996-21.55847 14.182956-19.378407 26.590356 2.170517 12.3567 15.084707 20.3289 27.242607 18.1771 9.3402-1.6533 13.1789-6.2031 13.1789-6.2031.0703-.0799.1117-.1812.1177-.2876.0061-.1063-.0237-.2117-.0844-.299l-5.1891-7.0233c-.0272-.0394-.0628-.0723-.1043-.0961s-.0877-.0379-.1354-.0414c-.0476-.0034-.0955.0039-.1399.0215-.0445.0175-.0845.0449-.117.08 0 0-2.7057 3.008-7.7148 3.8929z"/><path d="m27.3712 35.3145c-9.8621 1.7469-15.4072-4.3979-16.4283-10.2099-1.01149-5.7595 2.1052-13.4372 11.9673-15.18371 5.0091-.88649 8.5766 1.01151 8.5766 1.01151.0425.022.0894.0341.1372.0354.0478.0014.0953-.0081.139-.0278.0436-.0196.0823-.0489.1131-.0856s.053-.0799.0649-.1264l2.4849-8.38172c.0279-.1031.0202-.21265-.0219-.31077s-.1161-.17902-.21-.22948c0 0-5.1585-2.95546-14.4987-1.302886-12.2083 2.160996-21.55847 14.182956-19.378407 26.590356 2.170517 12.3567 15.084707 20.3289 27.242607 18.1771 9.3402-1.6533 13.1789-6.2031 13.1789-6.2031.0703-.0799.1117-.1812.1177-.2876.0061-.1063-.0237-.2117-.0844-.299l-5.1891-7.0233c-.0272-.0394-.0628-.0723-.1043-.0961s-.0877-.0379-.1354-.0414c-.0476-.0034-.0955.0039-.1399.0215-.0445.0175-.0845.0449-.117.08 0 0-2.7057 3.008-7.7148 3.8929z"/><path d="m27.3712 35.3145c-9.8621 1.7469-15.4072-4.3979-16.4283-10.2099-1.01149-5.7595 2.1052-13.4372 11.9673-15.18371 5.0091-.88649 8.5766 1.01151 8.5766 1.01151.0425.022.0894.0341.1372.0354.0478.0014.0953-.0081.139-.0278.0436-.0196.0823-.0489.1131-.0856s.053-.0799.0649-.1264l2.4849-8.38172c.0279-.1031.0202-.21265-.0219-.31077s-.1161-.17902-.21-.22948c0 0-5.1585-2.95546-14.4987-1.302886-12.2083 2.160996-21.55847 14.182956-19.378407 26.590356 2.170517 12.3567 15.084707 20.3289 27.242607 18.1771 9.3402-1.6533 13.1789-6.2031 13.1789-6.2031.0703-.0799.1117-.1812.1177-.2876.0061-.1063-.0237-.2117-.0844-.299l-5.1891-7.0233c-.0272-.0394-.0628-.0723-.1043-.0961s-.0877-.0379-.1354-.0414c-.0476-.0034-.0955.0039-.1399.0215-.0445.0175-.0845.0449-.117.08 0 0-2.7057 3.008-7.7148 3.8929z"/></g><path d="m3.14857 9.2077c.00649.03834.0764-.02224.191-.1618-.1295.08627-.19444.1434-.191.1618z" fill="#61b8f5"/><path d="m26.3921 40.0585c5.0867 1.8608 9.3104 1.8178 10.9007 1.712 2.3791-1.4386 3.4479-2.7039 3.4479-2.7039.0703-.0799.1117-.1812.1177-.2876.0061-.1064-.0237-.2117-.0844-.2991l-5.191-7.0232c-.0272-.0395-.0628-.0723-.1043-.0961s-.0878-.0379-.1354-.0414c-.0477-.0035-.0955.0039-.1399.0214-.0445.0176-.0845.0449-.117.08 0 0-2.7057 3.008-7.7164 3.8945-3.7699.6672-6.9084.1814-9.4052-.9969 2.288 2.5892 5.1851 4.5626 8.4273 5.7403z" fill="#0e73b9"/><path d="m12.2109 28.7871c.013 4.6452.2991 11.642 1.7779 14.8586 4.2107 1.796 8.9452 2.4428 13.5704 1.6242 4.4148-.7814 7.6018-2.2101 9.733-3.4992-1.5903.1058-5.814.1488-10.9007-1.712-3.2419-1.1784-6.1384-3.1523-8.4258-5.7418-2.6422-1.2477-4.5652-3.2726-5.7548-5.5298z" fill="#1894ea"/><path d="m10.9434 25.1037c-.5661-3.2227.1609-7.0463 2.6385-10.0949-3.61141 1.1411-8.93073 4.2349-11.70977 9.0048-.4974.8629-1.048306 1.6937-1.649474 2.4873.028777.1971.060356.3943.094736.5916 1.344638 7.6559 6.814088 13.6274 13.672108 16.553-1.4787-3.2166-1.7648-10.2134-1.7778-14.8586-.6106-1.1543-1.0385-2.3969-1.2683-3.6832z" fill="#3aa5f0"/><path d="m13.581 15.0084c1.9482-2.3995 4.9851-4.3193 9.3288-5.08812 3.8746-.68556 6.8863.29452 8.0517.77372-1.7335-.98728-6.3167-3.24874-13.1526-4.08193-4.7612-.58012-8.65069.16526-11.22459 1.00497-4.74328 4.95886-7.395491 11.83336-6.362567 18.88346.601167-.7937 1.152077-1.6244 1.649467-2.4873 2.77904-4.7699 8.09837-7.8638 11.70979-9.0048z" fill="#5fb5f1"/><path d="m17.8106 6.61237c6.8358.83319 11.4191 3.09465 13.1526 4.08193.3411.14.5248.2378.5248.2378.0425.022.0894.0341.1372.0354.0478.0014.0953-.0081.139-.0278.0436-.0196.0823-.0489.1131-.0856s.053-.0799.0649-.1264l2.4849-8.38172c.0279-.1031.0202-.21266-.0219-.31078s-.1161-.17901-.2099-.22947c0 0-5.1586-2.95623-14.4988-1.303656-5.0706.897606-9.6489 3.495326-13.11056 7.115266 2.5739-.83971 6.46346-1.58509 11.22466-1.00497z" fill="#a1d5fa"/><g clip-rule="evenodd" fill-rule="evenodd"><path d="m114.311 16.7803c-6.508 0-10.798 3.0132-10.798 8.2864 0 3.867 2.507 5.6749 5.014 7.0309 2.795 1.5066 5.495 1.6573 5.495 3.5154 0 1.7075-1.446 1.8582-2.652 1.8582-2.297 0-5.032-2.0717-5.867-2.7505-.02-.0159-.258-.2125-.415.0689-.879 1.5731-2.499 4.389-3.088 5.4112-.06.103-.273.3841.067.6378.99.7367 4.269 3.2115 9.255 3.2115 5.061 0 11.713-1.2053 11.713-8.7886 0-5.2732-4.241-7.1816-7.519-8.2362-2.121-.7031-3.856-1.1049-3.856-2.4608 0-1.2053.771-1.5569 2.651-1.5569 1.997 0 4.018.8912 4.886 1.3205.108.0533.509.3368.75-.0147.963-1.4049 2.094-4.3572 2.526-5.2556.038-.0791.077-.2687-.088-.3842-.79-.5513-3.997-1.8933-8.074-1.8933z" fill="#61b8f5"/><path d="m45.9102 18.5382c0-.5545.4318-1.004.9641-1.004h6.6035c.5325 0 .9641.4499.9641 1.004v23.7552c0 .5545-.4318 1.004-.9641 1.004h-6.6035c-.5325 0-.9641-.4499-.9641-1.004z" fill="#1998f0"/><path d="m50.2956 1.61426c2.7957 0 5.0612 2.36037 5.0612 5.27317s-2.2655 5.27317-5.0612 5.27317-5.0612-2.36037-5.0612-5.27317 2.2655-5.27317 5.0612-5.27317z" fill="#1998f0"/><path d="m67.4046 19.6008c-.479-1.1138-1.8173-2.0168-2.9877-2.0168h-5.8816c-1.1711 0-1.6718.8719-1.1187 1.947l11.7985 22.9312c.2515.4888.8878.885 1.4203.885h3.8544c.5329 0 1.1692-.3969 1.4203-.885l11.7985-22.9312c.5532-1.0753.0517-1.947-1.1187-1.947h-5.8816c-1.1711 0-2.5088.9031-2.9877 2.0168l-5.158 11.9948z" fill="#31a3f2"/><path d="m72.3687 31.1436.1928.4519-.5303 1.0044z" fill="#269aed"/><g fill="#49adf3"><path d="m90.6445 18.5382c0-.5545.4319-1.004.9642-1.004h6.6034c.5325 0 .9642.4499.9642 1.004v23.7552c0 .5545-.4319 1.004-.9642 1.004h-6.6034c-.5325 0-.9642-.4499-.9642-1.004z"/><path d="m95.03 1.61426c2.7957 0 5.061 2.36037 5.061 5.27317s-2.2653 5.27317-5.061 5.27317-5.0612-2.36037-5.0612-5.27317 2.2655-5.27317 5.0612-5.27317z"/></g></g></svg>